<?xml version="1.0" encoding="UTF-8"?>
<svg id="Layer_1" data-name="Layer 1" xmlns="http://www.w3.org/2000/svg" viewBox="0 0 802.21 789.02">
  <defs>
    <style>
      .cls-1 {
        fill: #c6b5a1;
      }
    </style>
  </defs>
  <path class="cls-1" d="M540.88,139.77c0,77.2-104.54,157.96-139.77,262.5-35.23-104.54-139.77-185.3-139.77-262.5S323.92,0,401.11,0s139.77,62.58,139.77,139.77Z"/>
  <path class="cls-1" d="M183,208.01c73.42,23.86,117.92,148.24,206.46,214.05-110.31,1.2-219.42,75.67-292.84,51.81C23.2,450.02-16.98,371.16,6.88,297.75c23.86-73.42,102.71-113.59,176.12-89.74Z"/>
  <path class="cls-1" d="M122.09,567.09c45.38-62.46,177.42-66.35,267.37-130.21-32.95,105.28,4.16,232.07-41.22,294.52-45.37,62.45-132.78,76.29-195.23,30.92-62.46-45.38-76.29-132.78-30.92-195.23Z"/>
  <path class="cls-1" d="M619.22,207.45c-73.42,23.86-117.92,148.24-206.46,214.05,110.31,1.2,219.42,75.67,292.84,51.81,73.41-23.85,113.59-102.71,89.74-176.12-23.86-73.42-102.71-113.59-176.12-89.74Z"/>
  <path class="cls-1" d="M680.12,567.09c-45.38-62.46-177.42-66.35-267.37-130.21,32.95,105.28-4.16,232.07,41.22,294.52,45.37,62.45,132.78,76.29,195.23,30.92,62.46-45.38,76.29-132.78,30.92-195.23Z"/>
</svg>